<?xml version="1.0" encoding="utf-8"?>
<!-- Svg Vector Icons : http://www.onlinewebfonts.com/icon -->
<!DOCTYPE svg PUBLIC "-//W3C//DTD SVG 1.1//EN" "http://www.w3.org/Graphics/SVG/1.1/DTD/svg11.dtd">
<svg version="1.1" xmlns="http://www.w3.org/2000/svg" xmlns:xlink="http://www.w3.org/1999/xlink" x="0px" y="0px" viewBox="0 0 1000 1000" enable-background="new 0 0 1000 1000" xml:space="preserve">
<metadata> Svg Vector Icons : http://www.onlinewebfonts.com/icon </metadata>
<g><g transform="translate(0.000000,512.000000) scale(0.100000,-0.100000)"><path d="M4657.3,5000.7c-507.3-59.4-982.1-268-1313.3-576.2c-423.1-394.4-583.9-861.5-559-1613.8c7.7-178,21.1-384.8,30.6-459.5c11.5-72.7,24.9-166.6,30.6-204.8c9.6-65.1,5.7-72.7-32.5-72.7c-70.8,0-164.6-68.9-210.6-157c-38.3-70.8-44-109.1-42.1-283.3c1.9-162.7,11.5-229.7,51.7-356.1c55.5-164.6,160.8-344.6,260.4-436.5c32.5-32.5,59.3-65.1,59.3-74.7c0-30.6,277.6-572.4,363.7-712.2c413.5-664.3,882.5-1033.8,1426.2-1129.5c210.6-36.4,344.6-36.4,555.2,0c365.7,65.1,641.3,218.3,959.1,534.1C6499-277.3,6700,15.6,6924,469.3c97.6,195.3,191.4,358,235.4,405.8c176.1,191.4,275.7,459.5,279.5,748.5c1.9,158.9-5.8,206.8-40.2,281.4c-45.9,99.6-114.9,153.1-199.1,157c-55.5,1.9-57.4,5.7-47.9,68.9c68.9,419.3,84.2,1028,30.6,1311.4c-74.7,405.9-241.2,716-526.5,982.1C6177.4,4872.4,5423.1,5088.7,4657.3,5000.7z M4234.2,3440.4c608.8-547.5,1309.4-802.1,2373.9-861.5l229.7-13.4v-63.2c0-95.7-53.6-459.5-105.3-721.7c-26.8-128.3-47.9-241.2-47.9-252.7c1.9-9.6,26.8,40.2,59.4,114.9c103.4,241.2,199.1,329.3,291,268c191.4-124.4,118.7-603-132.1-871c-57.4-61.3-112.9-158.9-180-308.2c-239.3-534.1-448-873-696.8-1119.9c-141.7-141.7-204.9-189.5-337-252.7c-252.7-124.4-365.6-147.4-698.7-147.4c-335,1.9-453.7,26.8-689.2,149.3C3927.9-445.8,3614-22.7,3267.5,752.6c-53.6,120.6-118.7,231.7-160.8,277.6c-111,116.8-149.3,181.9-202.9,340.8c-86.1,262.3-55.5,492,76.6,553.3c86.1,40.2,162.7-40.2,283.3-300.6c30.6-63.2,49.8-93.8,44-67c-105.3,526.5-145.5,819.4-145.5,1058.7c0,183.8,5.7,216.3,49.8,306.3c122.5,241.2,327.4,469,518.8,572.4c74.7,42.1,245,101.5,312,109.1C4048.5,3605.1,4134.7,3530.4,4234.2,3440.4z"/><path d="M3382.3-1443.2c-42.1-15.3-283.3-86.1-536-160.8c-982.1-287.2-1322.9-409.7-1627.2-585.8c-279.5-160.8-428.8-292.9-509.2-449.9c-201-398.2-281.4-830.8-298.6-1629.2L399.7-4780H5000h4600.3l-11.5,511.1c-15.3,668.1-61.3,997.4-189.6,1374.5c-116.8,338.9-241.2,484.3-599.2,694.9C8511-2029,8177.9-1904.6,7393-1676.7c-289.1,86.2-603,178-694.9,208.7l-170.4,53.6l11.5-45.9c21-78.5,15.3-536-7.7-662.4c-97.6-539.9-717.9-1437.7-1301.8-1881.8c-243.1-185.7-212.5-183.8-442.2-11.5c-440.3,331.2-863.4,853.8-1144.8,1412.8c-166.6,335-222.1,618.3-193.4,991.7c7.7,105.3,13.4,193.4,11.5,193.4C3460.8-1416.4,3424.5-1427.9,3382.3-1443.2z"/><path d="M4586.5-1496.8c-53.6-45.9-120.6-114.9-151.2-153.1l-51.7-68.9l67-103.4c74.7-111,174.2-218.2,289.1-310.1l74.7-59.3l-214.4-532.2l-212.5-530.3l84.2-116.8c91.9-130.2,229.7-264.2,407.8-400.1l116.8-90l112.9,84.2c139.8,105.3,333.1,296.7,430.7,425l72.8,97.6l-212.5,530.3l-214.4,528.4l153.1,149.3c82.3,80.4,180,187.6,214.4,239.3l61.3,90l-59.4,76.6c-32.5,42.1-99.6,109.1-147.4,153.1l-88.1,76.6h-317.8h-317.8L4586.5-1496.8z"/></g></g>
</svg>